<svg xmlns="http://www.w3.org/2000/svg" viewBox="46 -22 24 24">
  <defs>
    <style>
      .cls-1 {
        fill: #fff;
      }
    </style>
  </defs>
  <path id="github_icon" class="cls-1" d="M12,.3A12.154,12.154,0,0,0,0,12.6,12.279,12.279,0,0,0,8.2,24.276c.6.116.82-.265.82-.592,0-.292-.01-1.066-.015-2.092-3.338.742-4.042-1.651-4.042-1.651a3.241,3.241,0,0,0-1.335-1.8c-1.087-.763.084-.748.084-.748a2.524,2.524,0,0,1,1.838,1.267A2.522,2.522,0,0,0,9.05,19.685a2.649,2.649,0,0,1,.76-1.646c-2.665-.308-5.466-1.366-5.466-6.081a4.814,4.814,0,0,1,1.235-3.3A4.478,4.478,0,0,1,5.684,5.4s1.005-.33,3.3,1.261a11.044,11.044,0,0,1,6,0C17.264,5.07,18.269,5.4,18.269,5.4a4.6,4.6,0,0,1,.12,3.257,4.835,4.835,0,0,1,1.23,3.3c0,4.727-2.805,5.768-5.475,6.07a2.986,2.986,0,0,1,.81,2.276c0,1.647-.015,2.97-.015,3.369,0,.323.21.708.825.584A12.237,12.237,0,0,0,24,12.6,12.156,12.156,0,0,0,12,.3" transform="translate(46 -22.297)"/>
</svg>
