<svg xmlns="http://www.w3.org/2000/svg" viewBox="-43 95 96 96">
  <defs>
    <style>
      .cls-1 {
        fill: #fff;
        stroke: #000;
      }

      .cls-2 {
        fill: #2b2a29;
      }

      .cls-3 {
        stroke: none;
      }

      .cls-4 {
        fill: none;
      }
    </style>
  </defs>
  <g id="Gruppe_13" data-name="Gruppe 13" transform="translate(-113 57)">
    <g id="Ellipse_1" data-name="Ellipse 1" class="cls-1" transform="translate(70 38)">
      <circle class="cls-3" cx="48" cy="48" r="48"/>
      <circle class="cls-4" cx="48" cy="48" r="47.5"/>
    </g>
    <g id="other" transform="translate(75.209 44.992)">
      <path id="Pfad_1" data-name="Pfad 1" class="cls-2" d="M48.008,57.557H36.454c-.031-1.67-.047-2.676-.047-3.047a20.181,20.181,0,0,1,1.856-9.234c1.237-2.428,3.727-5.135,7.439-8.166a53.181,53.181,0,0,0,6.651-5.939,7.845,7.845,0,0,0,1.686-4.887,8.276,8.276,0,0,0-2.97-6.372,11.573,11.573,0,0,0-8-2.645,12.162,12.162,0,0,0-8.12,2.768q-3.248,2.761-4.485,8.429L18.791,27.011a19.375,19.375,0,0,1,6.9-13.781c4.284-3.774,9.883-5.661,16.843-5.661q10.95,0,17.446,5.738,6.473,5.73,6.48,13.348a14.735,14.735,0,0,1-2.382,7.965Q61.688,38.379,53.9,44.859q-4.037,3.364-5.011,5.4c-.649,1.361-.944,3.789-.881,7.3ZM36.454,74.679V61.95H49.183V74.679Z" transform="translate(0 0)"/>
    </g>
  </g>
</svg>
